<svg width="174" height="60" viewBox="0 0 174 60" fill="none" xmlns="http://www.w3.org/2000/svg">
<path d="M24.22 19H30.7L35.28 29.32L39.12 19H40.66L35.38 33H30.42L24.22 19ZM42.2377 19H48.0777L54.2777 33H46.7177L44.6177 28.36H40.2177L38.4177 33H36.9577L42.2377 19ZM44.0577 27.14L42.2377 23.08L40.6577 27.14H44.0577ZM55.4202 26.58L51.0802 19H58.9202L61.8002 24.72L64.6002 19H66.1402L62.4202 26.58V33H55.4202V26.58ZM76.2723 24.02C77.859 24.4466 79.0457 25.0133 79.8323 25.72C80.619 26.4133 81.0123 27.32 81.0123 28.44C81.0123 29.3333 80.7323 30.1333 80.1723 30.84C79.6123 31.5466 78.7857 32.1 77.6923 32.5C76.6123 32.9 75.299 33.1 73.7523 33.1C71.9257 33.1 70.3123 32.8666 68.9123 32.4C67.5257 31.92 66.439 31.34 65.6523 30.66L66.3123 29.76C67.0057 30.3066 67.879 30.7733 68.9323 31.16C69.9857 31.5466 71.119 31.74 72.3323 31.74C73.119 31.74 73.7123 31.6266 74.1123 31.4C74.5257 31.1733 74.7323 30.8533 74.7323 30.44C74.7323 29.72 74.019 29.16 72.5923 28.76L69.9923 28C68.579 27.5733 67.4857 26.98 66.7123 26.22C65.9523 25.46 65.5723 24.56 65.5723 23.52C65.5723 22.6533 65.8457 21.8666 66.3923 21.16C66.939 20.4533 67.7323 19.9 68.7723 19.5C69.8257 19.0866 71.0857 18.88 72.5523 18.88C73.9523 18.88 75.239 19.04 76.4123 19.36C77.599 19.68 78.5657 20.0666 79.3123 20.52L78.6523 21.44C78.0257 21.08 77.2723 20.7733 76.3923 20.52C75.5257 20.2666 74.6123 20.14 73.6523 20.14C72.8123 20.14 72.1657 20.2733 71.7123 20.54C71.2723 20.7933 71.0523 21.1466 71.0523 21.6C71.0523 21.9466 71.219 22.2533 71.5523 22.52C71.8857 22.7733 72.519 23.0266 73.4523 23.28L76.2723 24.02ZM82.1809 19H95.5209C96.2009 19 96.8209 19.1666 97.3809 19.5C97.9543 19.82 98.4076 20.2666 98.7409 20.84C99.0743 21.4 99.2409 22.02 99.2409 22.7C99.2409 23.3533 99.0809 23.9733 98.7609 24.56C98.4409 25.1466 98.0143 25.62 97.4809 25.98C98.0143 26.3533 98.4409 26.84 98.7609 27.44C99.0809 28.0266 99.2409 28.6466 99.2409 29.3C99.2409 29.9666 99.0743 30.5866 98.7409 31.16C98.4076 31.72 97.9543 32.1666 97.3809 32.5C96.8209 32.8333 96.2009 33 95.5209 33H82.1809V19ZM89.5009 25.42C89.9809 25.42 90.4209 25.3066 90.8209 25.08C91.2343 24.84 91.5543 24.52 91.7809 24.12C92.0209 23.7066 92.1409 23.2666 92.1409 22.8C92.1409 22.32 92.0209 21.88 91.7809 21.48C91.5543 21.0666 91.2343 20.74 90.8209 20.5C90.4209 20.26 89.9809 20.14 89.5009 20.14H89.2009V25.4C89.2676 25.4133 89.3676 25.42 89.5009 25.42ZM89.5009 31.84C89.9809 31.84 90.4209 31.7266 90.8209 31.5C91.2343 31.26 91.5543 30.94 91.7809 30.54C92.0209 30.1266 92.1409 29.68 92.1409 29.2C92.1409 28.7333 92.0209 28.3 91.7809 27.9C91.5543 27.4866 91.2343 27.1666 90.8209 26.94C90.4209 26.7 89.9809 26.58 89.5009 26.58H89.2009V31.82C89.2676 31.8333 89.3676 31.84 89.5009 31.84ZM100.439 19H114.979V20.18H107.479V25.36H111.159V26.56H107.479V31.8H114.979V33H100.439V19ZM116.123 19H129.503C130.156 19 130.756 19.1666 131.303 19.5C131.863 19.82 132.303 20.26 132.623 20.82C132.956 21.3666 133.123 21.9666 133.123 22.62C133.123 23.4866 132.856 24.2733 132.323 24.98C131.789 25.6866 131.116 26.14 130.303 26.34C131.023 26.54 131.609 26.92 132.063 27.48C132.529 28.04 132.763 28.6733 132.763 29.38V33H126.063V28.66C126.063 28.2333 125.983 27.9 125.823 27.66C125.636 27.38 125.423 27.1733 125.183 27.04C124.916 26.8933 124.616 26.7866 124.283 26.72C123.936 26.6533 123.609 26.6133 123.303 26.6L122.763 26.58V33H116.123V19ZM123.463 25.42C123.943 25.42 124.383 25.3066 124.783 25.08C125.196 24.84 125.516 24.52 125.743 24.12C125.983 23.7066 126.103 23.2666 126.103 22.8C126.103 22.32 125.983 21.88 125.743 21.48C125.516 21.0666 125.196 20.74 124.783 20.5C124.383 20.26 123.943 20.14 123.463 20.14H122.763V25.44L123.463 25.42ZM134.267 25.98C134.267 23.62 134.847 21.8666 136.007 20.72C136.754 19.9733 137.587 19.48 138.507 19.24C139.427 19 140.634 18.88 142.127 18.88C143.514 18.88 144.627 18.98 145.467 19.18C146.32 19.3666 147.02 19.7733 147.567 20.4C148.02 20.92 148.374 21.5533 148.627 22.3C148.894 23.0333 149.047 23.7533 149.087 24.46H147.947C147.894 23.86 147.747 23.2466 147.507 22.62C147.28 21.98 146.92 21.4333 146.427 20.98C145.934 20.5133 145.307 20.28 144.547 20.28C143.84 20.28 143.254 20.5933 142.787 21.22C142.387 21.7666 142.1 22.4933 141.927 23.4C141.767 24.2 141.687 25.06 141.687 25.98C141.687 27.4866 141.874 28.7466 142.247 29.76C142.74 31.0533 143.507 31.7 144.547 31.7V26.16H150.667V33C148.747 33 146.574 33.0266 144.147 33.08L142.127 33.1C140.66 33.1 139.467 32.96 138.547 32.68C137.64 32.3866 136.86 31.9133 136.207 31.26C134.914 29.9666 134.267 28.2066 134.267 25.98Z" fill="#7DAFBF"/>
<path d="M19 22L46 1.99997H27L1 22L41 51L46 37L19 22Z" stroke="#428094"/>
<path d="M148.251 30.3389L121 49.9961L139.998 50.2362L166.249 30.5664L126.619 1.06319L121.442 14.9989L148.251 30.3389Z" stroke="#428094"/>
<path d="M156.733 24.2688C154.936 24.3087 151.66 24.7626 152.938 26.2598C153.917 29.1593 153.563 30.7358 153.264 31.1617C155.032 30.6763 158.307 30.2223 157.267 32.2902C156.226 34.358 157.937 34.9936 158.923 35.0529" stroke="#428094"/>
<path d="M10 14.9999C16.0061 18.3333 18.5801 19.6666 16.0061 20.9999C13.4321 22.3333 10.858 20.9999 13.4321 24.3333C15.4913 26.9999 16.0061 28.9999 16.0061 29.6666L13.4321 30.9999" stroke="#428094"/>
</svg>
